<?xml version="1.0" encoding="iso-8859-1"?>
<!-- Generator: Adobe Illustrator 18.0.0, SVG Export Plug-In . SVG Version: 6.00 Build 0)  -->
<!DOCTYPE svg PUBLIC "-//W3C//DTD SVG 1.1//EN" "http://www.w3.org/Graphics/SVG/1.1/DTD/svg11.dtd">
<svg version="1.1" id="Capa_1" xmlns="http://www.w3.org/2000/svg" xmlns:xlink="http://www.w3.org/1999/xlink" x="0px" y="0px"
	 viewBox="0 0 297 297" style="enable-background:new 0 0 297 297;" xml:space="preserve">
<g>
	<g>
		<path d="M200.148,148.494l41.934-42.023c4.072-4.082,4.072-10.691-0.002-14.773L205.21,54.753
			c-1.962-1.966-4.625-3.071-7.402-3.071c-2.777,0-5.441,1.106-7.403,3.071l-41.906,41.999l-41.917-41.988
			c-1.962-1.965-4.625-3.069-7.402-3.069c-2.776,0-5.439,1.105-7.4,3.07L54.905,91.711c-4.075,4.083-4.074,10.694,0.001,14.776
			l41.956,42.025l-41.922,42.02c-4.072,4.081-4.072,10.689,0,14.771l36.851,36.943c1.962,1.966,4.626,3.072,7.403,3.072h0.001
			c2.776,0,5.44-1.105,7.402-3.071l41.918-42.003l41.906,41.972c1.961,1.965,4.623,3.068,7.4,3.068c2.775,0,5.438-1.104,7.399-3.068
			l36.87-36.927c4.077-4.082,4.077-10.694,0.001-14.776L200.148,148.494z"/>
	</g>
	<g>
		<path d="M263.535,0H33.465C15.013,0,0,15.013,0,33.465v230.07C0,281.987,15.013,297,33.465,297h230.07
			C281.987,297,297,281.987,297,263.535V33.465C297,15.013,281.987,0,263.535,0z M252.452,215.635l-36.869,36.926
			c-4.742,4.75-11.051,7.365-17.761,7.365c-6.714,0-13.022-2.616-17.761-7.365l-31.544-31.592l-31.557,31.62
			c-4.742,4.753-11.053,7.371-17.767,7.371c-6.714,0-13.023-2.618-17.769-7.374l-36.852-36.943
			c-9.751-9.775-9.75-25.68,0.002-35.451l31.601-31.675l-31.634-31.686c-9.759-9.777-9.76-25.686-0.002-35.463L81.417,44.42
			c4.743-4.75,11.052-7.366,17.762-7.366c6.713,0,13.021,2.615,17.765,7.366l31.552,31.606l31.546-31.614
			c4.742-4.753,11.053-7.371,17.767-7.371c6.714,0,13.023,2.618,17.765,7.37l36.87,36.943c9.756,9.775,9.756,25.681,0.002,35.458
			l-31.612,31.68l31.621,31.677C262.218,189.948,262.217,205.859,252.452,215.635z"/>
	</g>
</g>
<g>
</g>
<g>
</g>
<g>
</g>
<g>
</g>
<g>
</g>
<g>
</g>
<g>
</g>
<g>
</g>
<g>
</g>
<g>
</g>
<g>
</g>
<g>
</g>
<g>
</g>
<g>
</g>
<g>
</g>
</svg>
